<svg height="800" width="800" xmlns="http://www.w3.org/2000/svg" viewBox="0 0 512 512"><path d="M42.221 238.363h17.102a8.017 8.017 0 000-16.034H42.221a8.017 8.017 0 000 16.034zm34.203 52.376h-17.1a8.017 8.017 0 000 16.034h17.1a8.017 8.017 0 000-16.034zm85.514-86.58h128.266a8.017 8.017 0 000-16.034H161.938a8.017 8.017 0 000 16.034zm-68.41 0h34.206a8.017 8.017 0 000-16.034H93.528a8.017 8.017 0 000 16.034z"/><path d="M452.142 170.489c0-56.287-45.792-102.079-102.079-102.079-25.648 0-50.169 9.551-69.044 26.891-18.758 17.234-30.343 40.644-32.619 65.919a8.017 8.017 0 0015.969 1.439c1.919-21.293 11.684-41.021 27.498-55.55 15.908-14.616 36.575-22.665 58.196-22.665 47.446 0 86.046 38.6 86.046 86.046s-38.6 86.046-86.046 86.046H8.017a8.017 8.017 0 000 16.034h342.046c56.286-.002 102.079-45.795 102.079-102.081z"/><path d="M93.528 238.363h256.534c37.426 0 67.875-30.449 67.875-67.875s-30.448-67.875-67.875-67.875a8.017 8.017 0 000 16.034c28.585 0 51.841 23.256 51.841 51.841s-23.256 51.841-51.841 51.841H93.528a8.017 8.017 0 000 16.034zm247.983 52.376H110.63a8.017 8.017 0 000 16.034h230.881c33.3 0 60.392 27.092 60.392 60.392s-27.092 60.392-60.392 60.392-60.392-27.092-60.392-60.392a8.017 8.017 0 00-16.034 0c0 42.141 34.285 76.426 76.426 76.426s76.426-34.285 76.426-76.426-34.284-76.426-76.426-76.426z"/><path d="M367.699 367.165c0 14.44-11.748 26.188-26.188 26.188a8.017 8.017 0 000 16.034c23.281 0 42.221-18.941 42.221-42.221 0-23.281-18.941-42.221-42.221-42.221H93.528a8.017 8.017 0 000 16.034h247.983c14.44-.002 26.188 11.746 26.188 26.186zm136.284-76.426h-85.511a8.017 8.017 0 000 16.034h85.511a8.017 8.017 0 000-16.034zm-76.426-26.188a8.017 8.017 0 008.017 8.017h51.307a8.017 8.017 0 000-16.034h-51.307a8.018 8.018 0 00-8.017 8.017z"/></svg>