<?xml version="1.0" encoding="utf-8"?><svg viewBox="0 0 800 800" xmlns="http://www.w3.org/2000/svg" xmlns:xlink="http://www.w3.org/1999/xlink"><style>:root>svg{display:none}:root>svg:target{display:block}</style><svg viewBox="0 0 30 30" xml:space="preserve" id="humidity" xmlns="http://www.w3.org/2000/svg"><path d="M7.56 17.19c0-.88.24-1.89.72-3.03s1.1-2.25 1.86-3.31c1.56-2.06 2.92-3.62 4.06-4.67l.75-.72c.25.26.53.5.83.72.41.42 1.04 1.11 1.88 2.09s1.57 1.85 2.17 2.65c.71 1.01 1.32 2.1 1.81 3.25s.74 2.16.74 3.03c0 1-.19 1.95-.58 2.86-.39.91-.91 1.7-1.57 2.36-.66.66-1.45 1.19-2.37 1.58-.92.39-1.89.59-2.91.59-1 0-1.95-.19-2.86-.57-.91-.38-1.7-.89-2.36-1.55-.66-.65-1.19-1.44-1.58-2.35s-.59-1.89-.59-2.93zm2.26-2.93c0 .83.17 1.49.52 1.99.35.49.88.74 1.59.74.72 0 1.25-.25 1.61-.74.35-.49.53-1.15.54-1.99-.01-.84-.19-1.5-.54-2-.35-.49-.89-.74-1.61-.74-.71 0-1.24.25-1.59.74-.35.5-.52 1.16-.52 2zm1.57 0v-.35c0-.08.01-.19.02-.33s.02-.25.05-.32.05-.16.09-.24c.04-.08.09-.15.15-.18.07-.04.14-.06.23-.06.14 0 .25.04.33.12s.14.21.17.38c.03.18.05.32.06.45s.01.3.01.52c0 .23 0 .4-.01.52s-.03.27-.06.45c-.03.17-.09.3-.17.38s-.19.12-.33.12c-.09 0-.16-.02-.23-.06a.335.335 0 0 1-.15-.18c-.04-.08-.07-.17-.09-.24-.02-.08-.04-.19-.05-.32-.01-.14-.02-.25-.02-.32v-.34zm.59 7.75h1.32l4.99-10.74h-1.35l-4.96 10.74zm4.3-2.99c.01.84.2 1.5.55 2 .35.49.89.74 1.6.74.72 0 1.25-.25 1.6-.74.35-.49.52-1.16.53-2-.01-.84-.18-1.5-.53-1.99-.35-.49-.88-.74-1.6-.74-.71 0-1.25.25-1.6.74-.36.49-.54 1.15-.55 1.99zm1.57 0c0-.23 0-.4.01-.52s.03-.27.06-.45.09-.3.17-.38.19-.12.33-.12c.09 0 .17.02.24.06.07.04.12.1.16.19.04.09.07.17.1.24s.04.18.05.32l.01.32v.69l-.01.32-.05.32-.1.24-.16.19-.24.06c-.14 0-.25-.04-.33-.12s-.14-.21-.17-.38c-.03-.18-.05-.33-.06-.45s-.01-.3-.01-.53z"/></svg><svg viewBox="0 0 21 21" id="search-btn" xmlns="http://www.w3.org/2000/svg"><ellipse cx="9.989" cy="9.884" rx="8.989" ry="8.884"/><path d="m16.24 16.525 3.524 3.474"/></svg><svg viewBox="0 0 10 7" id="vector" xmlns="http://www.w3.org/2000/svg"><path d="m1 1 4 4 4-4"/></svg><svg viewBox="0 0 512 512" xml:space="preserve" id="wind" xmlns="http://www.w3.org/2000/svg"><path d="M42.221 238.363h17.102a8.017 8.017 0 0 0 0-16.034H42.221a8.017 8.017 0 0 0 0 16.034zM76.424 290.739h-17.1a8.017 8.017 0 0 0 0 16.034h17.1a8.017 8.017 0 0 0 0-16.034zM161.938 204.159h128.266a8.017 8.017 0 0 0 0-16.034H161.938a8.017 8.017 0 0 0 0 16.034zM93.528 204.159h34.206a8.017 8.017 0 0 0 0-16.034H93.528a8.017 8.017 0 0 0 0 16.034z"/><path d="M452.142 170.489c0-56.287-45.792-102.079-102.079-102.079-25.648 0-50.169 9.551-69.044 26.891-18.758 17.234-30.343 40.644-32.619 65.919a8.017 8.017 0 0 0 15.969 1.439c1.919-21.293 11.684-41.021 27.498-55.55 15.908-14.616 36.575-22.665 58.196-22.665 47.446 0 86.046 38.6 86.046 86.046s-38.6 86.046-86.046 86.046H8.017a8.017 8.017 0 0 0 0 16.034h342.046c56.286-.002 102.079-45.795 102.079-102.081z"/><path d="M93.528 238.363h256.534c37.426 0 67.875-30.449 67.875-67.875s-30.448-67.875-67.875-67.875a8.017 8.017 0 0 0 0 16.034c28.585 0 51.841 23.256 51.841 51.841s-23.256 51.841-51.841 51.841H93.528a8.017 8.017 0 0 0 0 16.034zM341.511 290.739H110.63a8.017 8.017 0 0 0 0 16.034h230.881c33.3 0 60.392 27.092 60.392 60.392s-27.092 60.392-60.392 60.392-60.392-27.092-60.392-60.392a8.017 8.017 0 0 0-16.034 0c0 42.141 34.285 76.426 76.426 76.426s76.426-34.285 76.426-76.426-34.284-76.426-76.426-76.426z"/><path d="M367.699 367.165c0 14.44-11.748 26.188-26.188 26.188a8.017 8.017 0 0 0 0 16.034c23.281 0 42.221-18.941 42.221-42.221 0-23.281-18.941-42.221-42.221-42.221H93.528a8.017 8.017 0 0 0 0 16.034h247.983c14.44-.002 26.188 11.746 26.188 26.186zM503.983 290.739h-85.511a8.017 8.017 0 0 0 0 16.034h85.511a8.017 8.017 0 0 0 0-16.034zM427.557 264.551a8.017 8.017 0 0 0 8.017 8.017h51.307a8.017 8.017 0 0 0 0-16.034h-51.307a8.018 8.018 0 0 0-8.017 8.017z"/></svg></svg>